<?xml version="1.0" encoding="UTF-8" standalone="no"?>
<svg width="867px" height="87px" viewBox="0 0 867 87" version="1.1" xmlns="http://www.w3.org/2000/svg" xmlns:xlink="http://www.w3.org/1999/xlink" xmlns:sketch="http://www.bohemiancoding.com/sketch/ns">
    <!-- Generator: Sketch 3.4.2 (15855) - http://www.bohemiancoding.com/sketch -->
    <title>Purple</title>
    <desc>Created with Sketch.</desc>
    <defs></defs>
    <g id="Page-1" stroke="none" stroke-width="1" fill="none" fill-rule="evenodd" sketch:type="MSPage">
        <g id="Homepage" sketch:type="MSArtboardGroup" transform="translate(-83.000000, -322.000000)" fill="#A99DD4" opacity="0.477670243">
            <g id="Header" sketch:type="MSLayerGroup">
                <g id="Header-Background" sketch:type="MSShapeGroup">
                    <g id="Purple">
                        <path d="M83.0000077,408.431472 C90.4716311,391.168982 107.651844,379.091632 127.651585,379.091632 C136.490922,379.091632 144.779493,381.450819 151.922533,385.574154 C160.009665,359.186519 184.555931,340 213.581403,340 C222.777409,340 231.5238,341.925911 239.439586,345.396567 C254.657603,330.899169 275.252615,322 297.925191,322 C328.151897,322 354.685987,337.817192 369.709218,361.629761 C375.61472,360.138286 381.798301,359.34597 388.166852,359.34597 C417.175028,359.34597 442.345577,375.784311 454.87943,399.857904 C456.192907,399.730584 457.52457,399.665434 458.871442,399.665434 C468.422296,399.665434 477.208354,402.94141 484.168213,408.431473 L83,408.431473 Z M949.886588,408.431473 C945.885896,402.945992 939.409077,399.381503 932.099694,399.381503 C927.988579,399.381503 924.140839,400.509103 920.848906,402.471885 C913.957174,386.814438 898.305142,375.882397 880.099694,375.882397 C871.238347,375.882397 862.981949,378.472386 856.046262,382.936631 C836.601634,349.612693 800.465764,327.22043 759.099694,327.22043 C725.49225,327.22043 695.337045,342.000633 674.780151,365.41521 C668.571538,363.697774 662.030734,362.780113 655.27559,362.780113 C630.362032,362.780113 608.363921,375.262128 595.194231,394.313417 C582.243074,384.365913 566.031365,378.452526 548.438456,378.452526 C523.642539,378.452526 501.590355,390.199374 487.543711,408.431473 L949.886588,408.431473 Z" id="Path"></path>
                    </g>
                </g>
            </g>
        </g>
    </g>
</svg>