<?xml version="1.0" encoding="UTF-8" standalone="no"?>
<svg width="208px" height="48px" viewBox="0 0 208 48" version="1.1" xmlns="http://www.w3.org/2000/svg" xmlns:xlink="http://www.w3.org/1999/xlink" xmlns:sketch="http://www.bohemiancoding.com/sketch/ns">
    <!-- Generator: Sketch 3.4.2 (15855) - http://www.bohemiancoding.com/sketch -->
    <title>Logo</title>
    <desc>Created with Sketch.</desc>
    <defs></defs>
    <g id="Page-1" stroke="none" stroke-width="1" fill="none" fill-rule="evenodd" sketch:type="MSPage">
        <g id="Homepage" sketch:type="MSArtboardGroup" transform="translate(-154.000000, -28.000000)">
            <g id="Header" sketch:type="MSLayerGroup">
                <g id="Logo" transform="translate(154.000000, 28.000000)" sketch:type="MSShapeGroup">
                    <path d="M81.8041558,36 L81.8041558,9.32 L77.1241558,9.32 L77.1241558,27.84 L63.4841558,9.32 L58.6841558,9.32 L58.6841558,36 L63.3641558,36 L63.3641558,16.96 L77.2841558,36 L81.8041558,36 Z M90.1518278,14.32 C91.5918278,14.32 92.7518278,13.16 92.7518278,11.72 C92.7518278,10.28 91.5918278,9.12 90.1518278,9.12 C88.7518278,9.12 87.5518278,10.28 87.5518278,11.72 C87.5518278,13.16 88.7518278,14.32 90.1518278,14.32 L90.1518278,14.32 Z M92.2718278,36 L92.2718278,16.68 L88.0718278,16.68 L88.0718278,36 L92.2718278,36 Z M104.2195,36.48 C106.1795,36.48 107.4195,35.96 108.1795,35.24 L107.1795,32.08 C106.8595,32.44 106.0995,32.76 105.2995,32.76 C104.0995,32.76 103.4595,31.8 103.4595,30.48 L103.4595,20.36 L107.3795,20.36 L107.3795,16.68 L103.4595,16.68 L103.4595,11.4 L99.2594998,11.4 L99.2594998,16.68 L96.0594998,16.68 L96.0594998,20.36 L99.2594998,20.36 L99.2594998,31.52 C99.2594998,34.72 100.9795,36.48 104.2195,36.48 L104.2195,36.48 Z M120.807172,36.48 C123.887172,36.48 126.727172,35.52 128.647172,33.68 L126.727172,30.92 C125.367172,32.28 123.127172,33.04 121.247172,33.04 C117.607172,33.04 115.407172,30.64 115.087172,27.72 L130.007172,27.72 L130.007172,26.72 C130.007172,20.64 126.287172,16.2 120.487172,16.2 C114.767172,16.2 110.687172,20.72 110.687172,26.32 C110.687172,32.44 115.007172,36.48 120.807172,36.48 L120.807172,36.48 Z M125.927172,24.76 L115.047172,24.76 C115.247172,22.4 116.887172,19.64 120.487172,19.64 C124.287172,19.64 125.847172,22.48 125.927172,24.76 L125.927172,24.76 Z" id="NiteLine" fill="#FFFFFF"></path>
                    <path d="M151.434844,36 L151.434844,31.88 L139.674844,31.88 L139.674844,9.32 L134.994844,9.32 L134.994844,36 L151.434844,36 Z M158.085563,14.32 C159.525563,14.32 160.685563,13.16 160.685563,11.72 C160.685563,10.28 159.525563,9.12 158.085563,9.12 C156.685563,9.12 155.485563,10.28 155.485563,11.72 C155.485563,13.16 156.685563,14.32 158.085563,14.32 L158.085563,14.32 Z M160.205563,36 L160.205563,16.68 L156.005563,16.68 L156.005563,36 L160.205563,36 Z M183.336283,36 L183.336283,22.4 C183.336283,18.44 181.256283,16.2 177.096283,16.2 C174.056283,16.2 171.576283,17.8 170.296283,19.32 L170.296283,16.68 L166.096283,16.68 L166.096283,36 L170.296283,36 L170.296283,22.52 C171.256283,21.2 173.096283,19.92 175.256283,19.92 C177.616283,19.92 179.136283,20.92 179.136283,23.92 L179.136283,36 L183.336283,36 Z M198.147003,36.48 C201.227003,36.48 204.067003,35.52 205.987003,33.68 L204.067003,30.92 C202.707003,32.28 200.467003,33.04 198.587003,33.04 C194.947003,33.04 192.747003,30.64 192.427003,27.72 L207.347003,27.72 L207.347003,26.72 C207.347003,20.64 203.627003,16.2 197.827003,16.2 C192.107003,16.2 188.027003,20.72 188.027003,26.32 C188.027003,32.44 192.347003,36.48 198.147003,36.48 L198.147003,36.48 Z M203.267003,24.76 L192.387003,24.76 C192.587003,22.4 194.227003,19.64 197.827003,19.64 C201.627003,19.64 203.187003,22.48 203.267003,24.76 L203.267003,24.76 Z" id="NiteLine" fill="#FBC956"></path>
                    <g id="Speech-Bubble-+-Moon" transform="translate(0.000000, 0.298701)">
                        <path d="M36.0784644,39.7379738 C32.6055211,42.4985183 28.2186959,44.1461967 23.4494477,44.1461967 C12.1879065,44.1461967 3.05862362,34.9593123 3.05862362,23.6267161 C3.05862362,12.29412 12.1879065,3.10723562 23.4494477,3.10723562 C34.710989,3.10723562 43.8402719,12.29412 43.8402719,23.6267161 C43.8402719,28.3824158 42.2325657,32.7602463 39.5342461,36.2398524 L41.8049324,41.9966837 L36.0784644,39.7379738 Z M37.0214792,42.8430417 C33.190991,45.583445 28.5072162,47.1948052 23.4494477,47.1948052 C10.4986754,47.1948052 0,36.6298882 0,23.5974026 C0,10.564917 10.4986754,0 23.4494477,0 C36.4002201,0 46.8988955,10.564917 46.8988955,23.5974026 C46.8988955,28.6779568 45.3033758,33.3835061 42.5890556,37.2343234 L46.2346911,46.4770397 L37.0214792,42.8430417 Z" id="Oval" fill="#FFFFFF"></path>
                        <ellipse id="Moon" fill="#FBC956" cx="23.4494477" cy="23.5974026" rx="16.3126593" ry="16.4155844"></ellipse>
                        <path d="M38.1644419,30.6913441 C35.5345073,36.2056852 29.9338112,40.012987 23.4494477,40.012987 C14.4402148,40.012987 7.13678845,32.6634795 7.13678845,23.5974026 C7.13678845,19.3706823 8.72421952,15.5170657 11.3318562,12.6073572 C10.3078171,14.7545212 9.73419104,17.1604985 9.73419104,19.7012987 C9.73419104,28.7673756 17.0376174,36.1168831 26.0468503,36.1168831 C30.8558644,36.1168831 35.1788448,34.0227963 38.1644419,30.6913441 Z" id="Shadow" fill="#F7A163"></path>
                        <path d="M26.836464,15.1638823 C27.7339246,15.1638823 28.4614601,14.4317564 28.4614601,13.5286333 C28.4614601,12.6255101 27.7339246,11.8933842 26.836464,11.8933842 C25.9390034,11.8933842 25.2114679,12.6255101 25.2114679,13.5286333 C25.2114679,14.4317564 25.9390034,15.1638823 26.836464,15.1638823 Z M16.7467043,18.0412649 C18.6041778,18.0412649 20.1099575,16.5259844 20.1099575,14.6567912 C20.1099575,12.7875979 18.6041778,11.2723174 16.7467043,11.2723174 C14.8892308,11.2723174 13.3834511,12.7875979 13.3834511,14.6567912 C13.3834511,16.5259844 14.8892308,18.0412649 16.7467043,18.0412649 Z M26.1060303,33.5580047 C27.3443459,33.5580047 28.3481991,32.5478177 28.3481991,31.3016889 C28.3481991,30.0555601 27.3443459,29.0453731 26.1060303,29.0453731 C24.8677146,29.0453731 23.8638615,30.0555601 23.8638615,31.3016889 C23.8638615,32.5478177 24.8677146,33.5580047 26.1060303,33.5580047 Z M13.2701901,26.2819661 C13.8893479,26.2819661 14.3912745,25.7768726 14.3912745,25.1538082 C14.3912745,24.5307438 13.8893479,24.0256502 13.2701901,24.0256502 C12.6510323,24.0256502 12.1491057,24.5307438 12.1491057,25.1538082 C12.1491057,25.7768726 12.6510323,26.2819661 13.2701901,26.2819661 Z M34.5707938,21.7693344 C35.1899517,21.7693344 35.6918782,21.2642409 35.6918782,20.6411765 C35.6918782,20.0181121 35.1899517,19.5130186 34.5707938,19.5130186 C33.951636,19.5130186 33.4497094,20.0181121 33.4497094,20.6411765 C33.4497094,21.2642409 33.951636,21.7693344 34.5707938,21.7693344 Z" id="Holes" fill="#CA7C41"></path>
                    </g>
                </g>
            </g>
        </g>
    </g>
</svg>