<?xml version="1.0" encoding="UTF-8" standalone="no"?>
<svg width="977px" height="216px" viewBox="0 0 977 216" version="1.1" xmlns="http://www.w3.org/2000/svg" xmlns:xlink="http://www.w3.org/1999/xlink">
    <!-- Generator: Sketch 3.7.1 (28215) - http://www.bohemiancoding.com/sketch -->
    <title>Stars</title>
    <desc>Created with Sketch.</desc>
    <defs>
        <filter x="-50%" y="-50%" width="200%" height="200%" filterUnits="objectBoundingBox" id="filter-1">
            <feOffset dx="0" dy="0" in="SourceAlpha" result="shadowOffsetOuter1"></feOffset>
            <feGaussianBlur stdDeviation="1" in="shadowOffsetOuter1" result="shadowBlurOuter1"></feGaussianBlur>
            <feColorMatrix values="0 0 0 0 1   0 0 0 0 1   0 0 0 0 1  0 0 0 0.5 0" type="matrix" in="shadowBlurOuter1" result="shadowMatrixOuter1"></feColorMatrix>
            <feMerge>
                <feMergeNode in="shadowMatrixOuter1"></feMergeNode>
                <feMergeNode in="SourceGraphic"></feMergeNode>
            </feMerge>
        </filter>
    </defs>
    <g id="Page-1" stroke="none" stroke-width="1" fill="none" fill-rule="evenodd">
        <g id="Homepage" transform="translate(-21.000000, -88.000000)" fill="#FFFFFF">
            <g id="Header">
                <g id="Header-Background">
                    <g id="Stars" filter="url(#filter-1)" transform="translate(23.000000, 90.000000)">
                        <path d="M263.5,64 C264.880712,64 266,62.8807119 266,61.5 C266,60.1192881 264.880712,59 263.5,59 C262.119288,59 261,60.1192881 261,61.5 C261,62.8807119 262.119288,64 263.5,64 Z M813.5,104 C814.880712,104 816,102.880712 816,101.5 C816,100.119288 814.880712,99 813.5,99 C812.119288,99 811,100.119288 811,101.5 C811,102.880712 812.119288,104 813.5,104 Z M873.5,14 C874.880712,14 876,12.8807119 876,11.5 C876,10.1192881 874.880712,9 873.5,9 C872.119288,9 871,10.1192881 871,11.5 C871,12.8807119 872.119288,14 873.5,14 Z M173.5,184 C174.880712,184 176,182.880712 176,181.5 C176,180.119288 174.880712,179 173.5,179 C172.119288,179 171,180.119288 171,181.5 C171,182.880712 172.119288,184 173.5,184 Z M158.5,92 C159.328427,92 160,91.3284271 160,90.5 C160,89.6715729 159.328427,89 158.5,89 C157.671573,89 157,89.6715729 157,90.5 C157,91.3284271 157.671573,92 158.5,92 Z M248.5,152 C249.328427,152 250,151.328427 250,150.5 C250,149.671573 249.328427,149 248.5,149 C247.671573,149 247,149.671573 247,150.5 C247,151.328427 247.671573,152 248.5,152 Z M108.5,212 C109.328427,212 110,211.328427 110,210.5 C110,209.671573 109.328427,209 108.5,209 C107.671573,209 107,209.671573 107,210.5 C107,211.328427 107.671573,212 108.5,212 Z M98.5,62 C99.3284271,62 100,61.3284271 100,60.5 C100,59.6715729 99.3284271,59 98.5,59 C97.6715729,59 97,59.6715729 97,60.5 C97,61.3284271 97.6715729,62 98.5,62 Z M228.5,22 C229.328427,22 230,21.3284271 230,20.5 C230,19.6715729 229.328427,19 228.5,19 C227.671573,19 227,19.6715729 227,20.5 C227,21.3284271 227.671573,22 228.5,22 Z M241.5,203 C242.328427,203 243,202.328427 243,201.5 C243,200.671573 242.328427,200 241.5,200 C240.671573,200 240,200.671573 240,201.5 C240,202.328427 240.671573,203 241.5,203 Z M671.5,183 C672.328427,183 673,182.328427 673,181.5 C673,180.671573 672.328427,180 671.5,180 C670.671573,180 670,180.671573 670,181.5 C670,182.328427 670.671573,183 671.5,183 Z M771.5,143 C772.328427,143 773,142.328427 773,141.5 C773,140.671573 772.328427,140 771.5,140 C770.671573,140 770,140.671573 770,141.5 C770,142.328427 770.671573,143 771.5,143 Z M701.5,73 C702.328427,73 703,72.3284271 703,71.5 C703,70.6715729 702.328427,70 701.5,70 C700.671573,70 700,70.6715729 700,71.5 C700,72.3284271 700.671573,73 701.5,73 Z M751.5,3 C752.328427,3 753,2.32842712 753,1.5 C753,0.671572875 752.328427,0 751.5,0 C750.671573,0 750,0.671572875 750,1.5 C750,2.32842712 750.671573,3 751.5,3 Z M831.5,53 C832.328427,53 833,52.3284271 833,51.5 C833,50.6715729 832.328427,50 831.5,50 C830.671573,50 830,50.6715729 830,51.5 C830,52.3284271 830.671573,53 831.5,53 Z M741.5,203 C742.328427,203 743,202.328427 743,201.5 C743,200.671573 742.328427,200 741.5,200 C740.671573,200 740,200.671573 740,201.5 C740,202.328427 740.671573,203 741.5,203 Z M891.5,133 C892.328427,133 893,132.328427 893,131.5 C893,130.671573 892.328427,130 891.5,130 C890.671573,130 890,130.671573 890,131.5 C890,132.328427 890.671573,133 891.5,133 Z M841.5,143 C842.328427,143 843,142.328427 843,141.5 C843,140.671573 842.328427,140 841.5,140 C840.671573,140 840,140.671573 840,141.5 C840,142.328427 840.671573,143 841.5,143 Z M111.5,103 C112.328427,103 113,102.328427 113,101.5 C113,100.671573 112.328427,100 111.5,100 C110.671573,100 110,100.671573 110,101.5 C110,102.328427 110.671573,103 111.5,103 Z M51.5,43 C52.3284271,43 53,42.3284271 53,41.5 C53,40.6715729 52.3284271,40 51.5,40 C50.6715729,40 50,40.6715729 50,41.5 C50,42.3284271 50.6715729,43 51.5,43 Z M61.5,183 C62.3284271,183 63,182.328427 63,181.5 C63,180.671573 62.3284271,180 61.5,180 C60.6715729,180 60,180.671573 60,181.5 C60,182.328427 60.6715729,183 61.5,183 Z M891.5,183 C892.328427,183 893,182.328427 893,181.5 C893,180.671573 892.328427,180 891.5,180 C890.671573,180 890,180.671573 890,181.5 C890,182.328427 890.671573,183 891.5,183 Z M881.5,73 C882.328427,73 883,72.3284271 883,71.5 C883,70.6715729 882.328427,70 881.5,70 C880.671573,70 880,70.6715729 880,71.5 C880,72.3284271 880.671573,73 881.5,73 Z M881.5,73 C882.328427,73 883,72.3284271 883,71.5 C883,70.6715729 882.328427,70 881.5,70 C880.671573,70 880,70.6715729 880,71.5 C880,72.3284271 880.671573,73 881.5,73 Z M1.5,73 C2.32842712,73 3,72.3284271 3,71.5 C3,70.6715729 2.32842712,70 1.5,70 C0.671572875,70 0,70.6715729 0,71.5 C0,72.3284271 0.671572875,73 1.5,73 Z M21.5,153 C22.3284271,153 23,152.328427 23,151.5 C23,150.671573 22.3284271,150 21.5,150 C20.6715729,150 20,150.671573 20,151.5 C20,152.328427 20.6715729,153 21.5,153 Z M951.5,53 C952.328427,53 953,52.3284271 953,51.5 C953,50.6715729 952.328427,50 951.5,50 C950.671573,50 950,50.6715729 950,51.5 C950,52.3284271 950.671573,53 951.5,53 Z M971.5,143 C972.328427,143 973,142.328427 973,141.5 C973,140.671573 972.328427,140 971.5,140 C970.671573,140 970,140.671573 970,141.5 C970,142.328427 970.671573,143 971.5,143 Z M901.5,73 C902.328427,73 903,72.3284271 903,71.5 C903,70.6715729 902.328427,70 901.5,70 C900.671573,70 900,70.6715729 900,71.5 C900,72.3284271 900.671573,73 901.5,73 Z" id="Round"></path>
                        <path d="M221.813139,104.728103 L219.387378,106.473264 L219.477713,103.486335 L217.068365,101.718583 L219.937019,100.881485 L220.873721,98.0437937 L222.556311,100.513368 L225.544573,100.52733 L223.715817,102.890708 L224.625963,105.737029 L221.813139,104.728103 Z M701.080801,135.717008 L698.250798,136.67669 L699.21048,133.846687 L697.423249,131.451752 L700.4113,131.489945 L702.136733,129.050112 L703.023769,131.903719 L705.877376,132.790754 L703.437543,134.516188 L703.475736,137.504239 L701.080801,135.717008 Z M820.241816,185.365335 L817.271383,185.039091 L819.337161,182.879816 L818.729523,179.953952 L821.421476,181.251371 L824.016368,179.769331 L823.614308,182.730455 L825.825678,184.740368 L822.885238,185.273024 L821.657048,187.997259 L820.241816,185.365335 Z M758.057143,54.6914419 L755.759027,56.6015643 L755.640785,53.6156098 L753.113994,52.0202317 L755.917266,50.9850659 L756.653739,48.0889456 L758.5045,50.4351325 L761.486456,50.2406098 L759.827016,52.7257988 L760.933494,55.5016975 L758.057143,54.6914419 Z M663.5,22.75 L662.030537,23.5225425 L662.311179,21.8862712 L661.122359,20.7274575 L662.765268,20.4887288 L663.5,19 L664.234732,20.4887288 L665.877641,20.7274575 L664.688821,21.8862712 L664.969463,23.5225425 L663.5,22.75 Z M107.923363,141.198018 L106.188877,142.745143 L106.015916,140.427359 L104.008526,139.255852 L106.159422,138.375122 L106.653273,136.103965 L108.155562,137.877428 L110.468168,137.645283 L109.245737,139.622074 L110.181156,141.749757 L107.923363,141.198018 Z M306.73285,181.07289 L304.409683,181.14315 L305.767031,179.256447 L304.982311,177.068696 L307.196116,177.776586 L309.034299,176.354221 L309.045158,178.678425 L310.965938,179.987106 L308.758845,180.715652 L308.107769,182.946827 L306.73285,181.07289 Z M153.923363,33.1980175 L152.188877,34.7451435 L152.015916,32.4273587 L150.008526,31.2558523 L152.159422,30.3751217 L152.653273,28.103965 L154.155562,29.8774283 L156.468168,29.6452826 L155.245737,31.6220738 L156.181156,33.7497566 L153.923363,33.1980175 Z M43.9233633,113.198018 L42.1888769,114.745143 L42.0159158,112.427359 L40.0085258,111.255852 L42.1594222,110.375122 L42.6532734,108.103965 L44.1555615,109.877428 L46.4681683,109.645283 L45.2457371,111.622074 L46.1811556,113.749757 L43.9233633,113.198018 Z M923.923363,113.198018 L922.188877,114.745143 L922.015916,112.427359 L920.008526,111.255852 L922.159422,110.375122 L922.653273,108.103965 L924.155562,109.877428 L926.468168,109.645283 L925.245737,111.622074 L926.181156,113.749757 L923.923363,113.198018 Z M613.923363,153.198018 L612.188877,154.745143 L612.015916,152.427359 L610.008526,151.255852 L612.159422,150.375122 L612.653273,148.103965 L614.155562,149.877428 L616.468168,149.645283 L615.245737,151.622074 L616.181156,153.749757 L613.923363,153.198018 Z"></path>
                    </g>
                </g>
            </g>
        </g>
    </g>
</svg>